<svg width="60.438" height="29.938" viewBox="0 0 58.438 29.938" xmlns="http://www.w3.org/2000/svg"><g id="svgGroup" stroke-linecap="round" fill-rule="evenodd" font-size="9pt" stroke="#da3750" stroke-width="0" fill="#0eb888" style="stroke:#da3750;stroke-width:0;fill:#0eb888"><path d="M 11.875 20.031 L 11.875 22.406 L 0 22.406 L 0 0 L 11.375 0 L 11.375 2.375 L 2.625 2.375 L 2.625 9.828 L 10.719 9.828 L 10.719 12.188 L 2.625 12.188 L 2.625 20.031 L 11.875 20.031 Z M 55.781 6.406 L 58.438 6.406 L 51.078 24.969 A 13.189 13.189 0 0 1 50.068 27.025 Q 48.274 29.938 45.547 29.938 A 8.154 8.154 0 0 1 44.843 29.909 Q 44.501 29.879 44.209 29.819 A 3.873 3.873 0 0 1 43.875 29.734 L 43.875 27.438 Q 44.703 27.719 45.391 27.719 A 2.729 2.729 0 0 0 47.656 26.55 Q 47.983 26.119 48.244 25.53 A 6.837 6.837 0 0 0 48.297 25.406 L 49.578 22.375 L 43.328 6.406 L 46.172 6.406 L 50.5 18.719 A 3.498 3.498 0 0 1 50.535 18.833 Q 50.618 19.114 50.797 19.814 A 106.316 106.316 0 0 1 50.828 19.938 L 50.922 19.938 A 6.979 6.979 0 0 1 50.971 19.723 Q 51.059 19.359 51.234 18.75 L 55.781 6.406 Z M 31.156 21.828 L 31.156 19.078 Q 33.25 20.625 35.766 20.625 A 7.489 7.489 0 0 0 36.955 20.539 Q 39.04 20.202 39.136 18.538 A 2.841 2.841 0 0 0 39.141 18.375 A 2.36 2.36 0 0 0 39.087 17.861 A 1.732 1.732 0 0 0 38.852 17.289 A 2.728 2.728 0 0 0 38.338 16.707 A 3.35 3.35 0 0 0 38.07 16.5 A 5.342 5.342 0 0 0 37.465 16.137 A 7.004 7.004 0 0 0 36.914 15.883 A 67.42 67.42 0 0 0 36.225 15.604 A 82.42 82.42 0 0 0 35.484 15.313 Q 34.492 14.919 33.725 14.518 A 13.283 13.283 0 0 1 33.617 14.461 Q 32.813 14.031 32.273 13.492 Q 31.734 12.953 31.461 12.266 Q 31.196 11.598 31.188 10.71 A 6.149 6.149 0 0 1 31.187 10.656 A 4.174 4.174 0 0 1 31.34 9.511 A 3.545 3.545 0 0 1 31.703 8.664 Q 32.219 7.797 33.078 7.211 A 6.226 6.226 0 0 1 34.602 6.461 A 7.303 7.303 0 0 1 35.039 6.328 Q 36.141 6.031 37.313 6.031 Q 39.391 6.031 41.031 6.75 L 41.031 9.344 Q 39.266 8.188 36.969 8.188 A 5.45 5.45 0 0 0 36.285 8.229 A 4.155 4.155 0 0 0 35.672 8.352 A 3.601 3.601 0 0 0 35.119 8.556 A 2.802 2.802 0 0 0 34.68 8.813 A 2.211 2.211 0 0 0 34.199 9.276 A 2.012 2.012 0 0 0 34.039 9.523 A 1.866 1.866 0 0 0 33.813 10.406 A 2.19 2.19 0 0 0 33.812 10.437 A 2.859 2.859 0 0 0 33.847 10.895 Q 33.901 11.227 34.039 11.484 A 2.163 2.163 0 0 0 34.45 12.02 A 2.707 2.707 0 0 0 34.703 12.234 Q 35.141 12.563 35.766 12.828 A 45.694 45.694 0 0 0 36.389 13.087 Q 36.764 13.24 37.188 13.406 A 22.684 22.684 0 0 1 38.195 13.818 A 17.227 17.227 0 0 1 39.094 14.242 A 7.368 7.368 0 0 1 39.92 14.73 A 5.734 5.734 0 0 1 40.531 15.211 A 3.785 3.785 0 0 1 41.445 16.453 A 3.419 3.419 0 0 1 41.695 17.275 Q 41.766 17.671 41.766 18.125 A 4.545 4.545 0 0 1 41.651 19.17 A 3.56 3.56 0 0 1 41.242 20.187 Q 40.719 21.063 39.844 21.641 Q 38.969 22.219 37.828 22.5 A 9.889 9.889 0 0 1 35.598 22.78 A 11.018 11.018 0 0 1 35.438 22.781 A 10.771 10.771 0 0 1 33.335 22.586 A 8.01 8.01 0 0 1 31.156 21.828 Z M 27.297 12 L 27.297 22.406 L 24.734 22.406 L 24.734 19.906 L 24.672 19.906 A 6.177 6.177 0 0 1 23.24 21.623 Q 21.947 22.672 20.133 22.771 A 7.041 7.041 0 0 1 19.75 22.781 Q 17.359 22.781 16.008 21.516 A 4.207 4.207 0 0 1 14.697 18.855 A 5.877 5.877 0 0 1 14.656 18.156 Q 14.656 13.672 19.938 12.938 L 24.734 12.266 A 7.407 7.407 0 0 0 24.598 10.777 Q 24.065 8.188 21.438 8.188 A 7.858 7.858 0 0 0 16.294 10.093 A 9.895 9.895 0 0 0 16.219 10.156 L 16.219 7.531 A 9.644 9.644 0 0 1 20.666 6.072 A 11.955 11.955 0 0 1 21.656 6.031 A 7.659 7.659 0 0 1 23.923 6.338 Q 26.414 7.11 27.066 9.828 A 9.337 9.337 0 0 1 27.297 12 Z M 24.734 15.906 L 24.734 14.313 L 20.875 14.844 A 10.428 10.428 0 0 0 19.859 15.035 Q 18.831 15.285 18.208 15.712 A 3.024 3.024 0 0 0 18.187 15.727 Q 17.441 16.248 17.309 17.431 A 4.866 4.866 0 0 0 17.281 17.969 Q 17.281 19.141 18.117 19.883 A 2.846 2.846 0 0 0 19.379 20.521 Q 19.808 20.622 20.311 20.625 A 5.171 5.171 0 0 0 20.344 20.625 A 4.453 4.453 0 0 0 21.985 20.331 A 4.081 4.081 0 0 0 23.492 19.289 A 4.598 4.598 0 0 0 24.698 16.589 A 6.19 6.19 0 0 0 24.734 15.906 Z"/></g></svg>