<svg width="39.385" height="15.039" viewBox="0 0 39.385 15.039" xmlns="http://www.w3.org/2000/svg"><g id="svgGroup" stroke-linecap="round" fill-rule="evenodd" font-size="9pt" stroke="#da3750" stroke-width="0" fill="#da3750" style="stroke:#da3750;stroke-width:0;fill:#da3750"><path d="M 10.527 0.801 L 10.527 14.805 L 8.887 14.805 L 8.887 8.418 L 1.641 8.418 L 1.641 14.805 L 0 14.805 L 0 0.801 L 1.641 0.801 L 1.641 6.943 L 8.887 6.943 L 8.887 0.801 L 10.527 0.801 Z M 39.385 0 L 39.385 14.805 L 37.783 14.805 L 37.783 13.105 L 37.744 13.105 A 3.889 3.889 0 0 1 36.615 14.375 Q 35.668 15.039 34.307 15.039 A 4.278 4.278 0 0 1 32.9 14.817 A 3.614 3.614 0 0 1 31.294 13.696 A 4.552 4.552 0 0 1 30.402 11.952 Q 30.166 11.097 30.166 10.039 A 8.007 8.007 0 0 1 30.327 8.384 Q 30.615 7.022 31.416 6.064 A 4.054 4.054 0 0 1 34.363 4.583 A 5.484 5.484 0 0 1 34.746 4.57 A 4.093 4.093 0 0 1 35.977 4.745 A 3.048 3.048 0 0 1 37.744 6.191 L 37.783 6.191 L 37.783 0 L 39.385 0 Z M 21.143 8.301 L 21.143 14.805 L 19.541 14.805 L 19.541 13.242 L 19.502 13.242 A 3.861 3.861 0 0 1 18.607 14.315 Q 17.715 15.039 16.426 15.039 A 4.544 4.544 0 0 1 15.475 14.946 Q 14.876 14.817 14.421 14.513 A 2.611 2.611 0 0 1 14.087 14.248 A 2.629 2.629 0 0 1 13.267 12.585 A 3.673 3.673 0 0 1 13.242 12.148 A 3.461 3.461 0 0 1 13.511 10.741 Q 14.142 9.308 16.261 8.931 A 7.551 7.551 0 0 1 16.543 8.887 L 19.541 8.467 A 4.63 4.63 0 0 0 19.456 7.536 Q 19.162 6.112 17.854 5.941 A 2.896 2.896 0 0 0 17.48 5.918 A 4.911 4.911 0 0 0 14.266 7.109 A 6.184 6.184 0 0 0 14.219 7.148 L 14.219 5.508 Q 15.693 4.57 17.617 4.57 A 4.787 4.787 0 0 1 19.034 4.762 Q 20.591 5.244 20.998 6.943 A 5.835 5.835 0 0 1 21.143 8.301 Z M 29.375 4.766 L 29.375 6.426 A 1.381 1.381 0 0 0 28.955 6.211 Q 28.762 6.149 28.528 6.123 A 3.268 3.268 0 0 0 28.164 6.104 A 1.933 1.933 0 0 0 26.721 6.741 A 2.945 2.945 0 0 0 26.45 7.07 A 3.394 3.394 0 0 0 25.962 8.111 Q 25.83 8.568 25.785 9.112 A 7.207 7.207 0 0 0 25.762 9.707 L 25.762 14.805 L 24.16 14.805 L 24.16 4.805 L 25.762 4.805 L 25.762 6.865 L 25.801 6.865 Q 26.143 5.811 26.846 5.22 A 2.519 2.519 0 0 1 27.677 4.746 A 2.344 2.344 0 0 1 28.418 4.629 A 4.606 4.606 0 0 1 28.763 4.641 Q 29.142 4.669 29.375 4.766 Z M 37.783 10.283 L 37.783 8.809 A 2.861 2.861 0 0 0 36.982 6.758 A 2.668 2.668 0 0 0 35.047 5.919 A 3.533 3.533 0 0 0 34.951 5.918 Q 33.486 5.918 32.646 6.992 A 3.652 3.652 0 0 0 32.03 8.224 Q 31.877 8.746 31.828 9.371 A 7.699 7.699 0 0 0 31.807 9.961 Q 31.807 11.282 32.277 12.178 A 3.152 3.152 0 0 0 32.612 12.69 Q 33.418 13.691 34.775 13.691 A 3.005 3.005 0 0 0 35.867 13.5 A 2.706 2.706 0 0 0 36.948 12.725 A 3.39 3.39 0 0 0 37.731 10.989 A 4.607 4.607 0 0 0 37.783 10.283 Z M 19.541 10.742 L 19.541 9.746 L 17.129 10.078 A 6.518 6.518 0 0 0 16.494 10.197 Q 15.852 10.354 15.462 10.621 A 1.888 1.888 0 0 0 15.449 10.63 A 1.209 1.209 0 0 0 15.008 11.22 Q 14.93 11.431 14.9 11.695 A 3.041 3.041 0 0 0 14.883 12.031 A 1.67 1.67 0 0 0 14.99 12.64 A 1.509 1.509 0 0 0 15.405 13.228 A 1.779 1.779 0 0 0 16.194 13.626 Q 16.462 13.689 16.777 13.691 A 3.239 3.239 0 0 0 16.797 13.691 A 2.783 2.783 0 0 0 17.823 13.508 A 2.55 2.55 0 0 0 18.765 12.856 A 2.874 2.874 0 0 0 19.518 11.169 A 3.869 3.869 0 0 0 19.541 10.742 Z"/></g></svg>