<svg width="70.342" height="15.04" viewBox="0 0 70.342 15.04" xmlns="http://www.w3.org/2000/svg"><g id="svgGroup" stroke-linecap="round" fill-rule="evenodd" font-size="9pt" stroke="#da3750" stroke-width="0" fill="#f2c022" style="stroke:#da3750;stroke-width:0;fill:#f2c022"><path d="M 14.277 0.801 L 14.277 14.805 L 12.646 14.805 L 12.646 5.41 A 23.069 23.069 0 0 1 12.666 4.505 Q 12.698 3.693 12.783 2.686 L 12.744 2.686 A 18.854 18.854 0 0 1 12.63 3.126 Q 12.463 3.735 12.324 4.043 L 7.539 14.805 L 6.738 14.805 L 1.963 4.121 A 3.927 3.927 0 0 1 1.847 3.818 Q 1.732 3.483 1.615 2.997 A 17.529 17.529 0 0 1 1.543 2.686 L 1.504 2.686 A 12.416 12.416 0 0 1 1.538 3.172 Q 1.577 3.914 1.582 5.135 A 86.808 86.808 0 0 1 1.582 5.43 L 1.582 14.805 L 0 14.805 L 0 0.801 L 2.168 0.801 L 6.465 10.566 Q 6.858 11.453 7.032 11.987 A 4.703 4.703 0 0 1 7.109 12.246 L 7.168 12.246 A 55.59 55.59 0 0 1 7.368 11.707 Q 7.563 11.188 7.714 10.825 A 12.045 12.045 0 0 1 7.842 10.527 L 12.227 0.801 L 14.277 0.801 Z M 70.342 8.643 L 70.342 14.805 L 68.74 14.805 L 68.74 9.063 A 8.57 8.57 0 0 0 68.704 8.245 Q 68.604 7.205 68.228 6.66 A 1.616 1.616 0 0 0 67.343 6.031 Q 67.069 5.946 66.734 5.925 A 3.632 3.632 0 0 0 66.504 5.918 A 2.025 2.025 0 0 0 65.041 6.537 A 3.013 3.013 0 0 0 64.761 6.855 A 3.477 3.477 0 0 0 64.062 8.682 A 4.462 4.462 0 0 0 64.043 9.102 L 64.043 14.805 L 62.441 14.805 L 62.441 8.867 A 5.605 5.605 0 0 0 62.348 7.791 Q 61.979 5.918 60.166 5.918 Q 59.111 5.918 58.428 6.802 Q 57.771 7.651 57.745 8.99 A 5.738 5.738 0 0 0 57.744 9.102 L 57.744 14.805 L 56.143 14.805 L 56.143 4.805 L 57.744 4.805 L 57.744 6.387 L 57.783 6.387 A 3.955 3.955 0 0 1 58.674 5.316 Q 59.51 4.629 60.687 4.575 A 4.428 4.428 0 0 1 60.889 4.57 A 3.099 3.099 0 0 1 61.931 4.741 A 2.787 2.787 0 0 1 62.676 5.142 A 2.874 2.874 0 0 1 63.721 6.641 Q 64.809 4.616 66.943 4.571 A 4.628 4.628 0 0 1 67.041 4.57 Q 70.055 4.57 70.317 7.966 A 8.811 8.811 0 0 1 70.342 8.643 Z M 52.91 4.805 L 52.91 14.805 L 51.309 14.805 L 51.309 13.223 L 51.27 13.223 A 3.663 3.663 0 0 1 50.371 14.327 Q 49.63 14.927 48.584 15.021 A 4.461 4.461 0 0 1 48.184 15.039 A 4.263 4.263 0 0 1 46.662 14.789 Q 44.802 14.081 44.627 11.365 A 9.114 9.114 0 0 1 44.609 10.781 L 44.609 4.805 L 46.201 4.805 L 46.201 10.527 A 6.061 6.061 0 0 0 46.301 11.682 Q 46.663 13.537 48.335 13.68 A 3.386 3.386 0 0 0 48.623 13.691 A 2.588 2.588 0 0 0 49.676 13.482 A 2.494 2.494 0 0 0 50.552 12.827 A 2.976 2.976 0 0 0 51.219 11.464 A 4.277 4.277 0 0 0 51.309 10.566 L 51.309 4.805 L 52.91 4.805 Z M 36.738 0 L 36.738 14.805 L 35.137 14.805 L 35.137 13.105 L 35.098 13.105 A 3.889 3.889 0 0 1 33.968 14.375 Q 33.022 15.039 31.66 15.039 A 4.278 4.278 0 0 1 30.254 14.817 A 3.614 3.614 0 0 1 28.647 13.696 A 4.552 4.552 0 0 1 27.755 11.952 Q 27.52 11.097 27.52 10.039 A 8.007 8.007 0 0 1 27.681 8.384 Q 27.969 7.022 28.77 6.064 A 4.054 4.054 0 0 1 31.717 4.583 A 5.484 5.484 0 0 1 32.1 4.57 A 4.093 4.093 0 0 1 33.331 4.745 A 3.048 3.048 0 0 1 35.098 6.191 L 35.137 6.191 L 35.137 0 L 36.738 0 Z M 25.781 9.365 L 25.781 10.205 L 18.721 10.205 Q 18.75 11.454 19.238 12.277 A 2.847 2.847 0 0 0 19.619 12.783 A 2.833 2.833 0 0 0 21.167 13.616 A 4.172 4.172 0 0 0 21.982 13.691 A 4.878 4.878 0 0 0 24.949 12.684 A 6.098 6.098 0 0 0 25.088 12.578 L 25.088 14.082 A 4.718 4.718 0 0 1 23.506 14.814 Q 22.654 15.039 21.602 15.039 A 5.302 5.302 0 0 1 20.168 14.855 A 3.885 3.885 0 0 1 18.271 13.677 Q 17.214 12.487 17.08 10.452 A 9.262 9.262 0 0 1 17.061 9.844 A 6.735 6.735 0 0 1 17.262 8.152 A 4.964 4.964 0 0 1 18.384 6.04 Q 19.707 4.57 21.67 4.57 A 4.857 4.857 0 0 1 22.94 4.727 A 3.43 3.43 0 0 1 24.707 5.84 A 4.242 4.242 0 0 1 25.529 7.411 Q 25.71 8.03 25.761 8.769 A 8.668 8.668 0 0 1 25.781 9.365 Z M 41.582 4.805 L 41.582 14.805 L 39.98 14.805 L 39.98 4.805 L 41.582 4.805 Z M 35.137 10.283 L 35.137 8.809 A 2.861 2.861 0 0 0 34.336 6.758 A 2.668 2.668 0 0 0 32.4 5.919 A 3.533 3.533 0 0 0 32.305 5.918 Q 30.84 5.918 30 6.992 A 3.652 3.652 0 0 0 29.384 8.224 Q 29.23 8.746 29.182 9.371 A 7.699 7.699 0 0 0 29.16 9.961 Q 29.16 11.282 29.631 12.178 A 3.152 3.152 0 0 0 29.966 12.69 Q 30.771 13.691 32.129 13.691 A 3.005 3.005 0 0 0 33.221 13.5 A 2.706 2.706 0 0 0 34.302 12.725 A 3.39 3.39 0 0 0 35.085 10.989 A 4.607 4.607 0 0 0 35.137 10.283 Z M 18.74 8.848 L 24.141 8.848 A 4.751 4.751 0 0 0 24.064 8.004 Q 23.975 7.531 23.783 7.156 A 2.406 2.406 0 0 0 23.472 6.689 A 2.156 2.156 0 0 0 22.096 5.95 A 3.132 3.132 0 0 0 21.641 5.918 A 2.582 2.582 0 0 0 19.754 6.691 A 3.132 3.132 0 0 0 19.717 6.729 A 3.42 3.42 0 0 0 18.904 8.115 A 4.582 4.582 0 0 0 18.74 8.848 Z M 40.068 1.973 A 1.015 1.015 0 0 0 40.801 2.266 Q 41.24 2.266 41.548 1.963 Q 41.855 1.66 41.855 1.23 A 1.292 1.292 0 0 0 41.855 1.203 A 0.992 0.992 0 0 0 41.548 0.483 A 1.034 1.034 0 0 0 40.801 0.186 A 1.278 1.278 0 0 0 40.797 0.186 A 1.006 1.006 0 0 0 40.068 0.483 Q 39.766 0.781 39.766 1.23 A 1.301 1.301 0 0 0 39.766 1.272 A 0.981 0.981 0 0 0 40.068 1.973 Z"/></g></svg>